<?xml version="1.0" standalone="no"?>
<!DOCTYPE svg PUBLIC "-//W3C//DTD SVG 20010904//EN"
 "http://www.w3.org/TR/2001/REC-SVG-20010904/DTD/svg10.dtd">
<svg version="1.0" xmlns="http://www.w3.org/2000/svg"
 width="150.000000pt" height="150.000000pt" viewBox="0 0 150.000000 150.000000"
 preserveAspectRatio="xMidYMid meet">

<g transform="translate(0.000000,150.000000) scale(0.100000,-0.100000)"
fill="#000000" stroke="none">
<path d="M693 1242 c-6 -4 -9 -19 -6 -34 5 -26 5 -27 25 -8 29 27 14 63 -19
42z"/>
<path d="M802 1213 c-2 -23 2 -28 21 -29 17 -1 22 4 24 27 2 24 -2 29 -20 29
-18 0 -23 -6 -25 -27z"/>
<path d="M587 1213 c-5 -4 -13 -8 -18 -8 -5 0 -9 -3 -9 -7 0 -5 0 -20 0 -35
l1 -28 20 24 c15 19 22 22 28 12 5 -8 11 -9 15 -3 8 13 -27 56 -37 45z"/>
<path d="M915 1189 c-6 -19 0 -38 9 -28 10 12 16 49 7 49 -5 0 -13 -9 -16 -21z"/>
<path d="M1006 1173 c-3 -4 -6 -15 -6 -25 0 -11 -4 -16 -10 -13 -5 3 -10 1
-10 -4 0 -6 9 -11 20 -11 14 0 20 7 20 21 0 11 5 17 10 14 6 -3 10 -2 10 3 0
12 -26 23 -34 15z"/>
<path d="M461 1156 c-14 -17 19 -63 38 -52 9 6 6 13 -8 25 -15 14 -17 21 -9
29 8 8 8 12 1 12 -6 0 -16 -6 -22 -14z"/>
<path d="M1082 1094 c-24 -16 -21 -37 3 -27 12 4 13 1 8 -13 -7 -18 -6 -18 17
-3 34 22 39 43 9 34 -21 -7 -22 -6 -10 9 17 20 2 21 -27 0z"/>
<path d="M373 1084 c-3 -9 3 -25 16 -37 l21 -21 0 27 c0 19 -4 26 -12 21 -8
-5 -9 -2 -5 9 3 10 2 17 -4 17 -5 0 -12 -7 -16 -16z"/>
<path d="M1160 1001 c0 -5 5 -13 10 -16 6 -3 10 -2 10 4 0 5 -4 13 -10 16 -5
3 -10 2 -10 -4z"/>
<path d="M326 985 c-3 -8 -1 -15 4 -15 6 0 10 7 10 15 0 8 -2 15 -4 15 -2 0
-6 -7 -10 -15z"/>
<path d="M286 901 c-4 -7 -5 -15 -2 -18 9 -9 19 4 14 18 -4 11 -6 11 -12 0z"/>
<path d="M1216 885 c4 -8 8 -15 10 -15 2 0 4 7 4 15 0 8 -4 15 -10 15 -5 0 -7
-7 -4 -15z"/>
<path d="M385 620 c-3 -5 1 -10 9 -10 21 0 20 -7 -4 -37 -18 -24 -19 -27 -3
-38 12 -9 14 -20 10 -43 -4 -19 -2 -32 3 -32 6 0 10 5 10 10 0 6 16 10 36 10
27 0 37 -5 41 -20 7 -27 21 -25 20 3 0 12 3 29 7 38 8 18 -20 53 -35 44 -17
-11 -29 5 -17 24 17 28 3 54 -27 49 -14 -3 -25 -1 -25 3 0 12 -17 11 -25 -1z
m75 -26 c0 -11 -5 -14 -16 -10 -9 3 -18 6 -20 6 -3 0 -2 5 1 10 10 16 35 12
35 -6z m-33 -46 c-20 -13 -27 -9 -27 12 0 18 3 19 20 8 14 -9 16 -14 7 -20z
m23 -33 c0 -15 -6 -25 -14 -25 -24 0 -30 22 -11 37 25 17 25 17 25 -12z m50
-5 c0 -11 -6 -20 -14 -20 -9 0 -14 9 -13 20 1 11 7 20 14 20 7 0 13 -9 13 -20z"/>
<path d="M340 540 c0 -5 5 -10 10 -10 6 0 10 5 10 10 0 6 -4 10 -10 10 -5 0
-10 -4 -10 -10z"/>
</g>
</svg>
